<svg xmlns="http://www.w3.org/2000/svg" version="1.1" xmlns:xlink="http://www.w3.org/1999/xlink" xmlns:svgjs="http://svgjs.com/svgjs" width="40" height="40" x="0" y="0" viewBox="0 0 464 464" style="enable-background:new 0 0 512 512" xml:space="preserve" class=""><g>
<g xmlns="http://www.w3.org/2000/svg" id="surface1">
<path d="M 192 400 C 116.890625 400 56 339.109375 56 264 C 56 188.890625 116.890625 128 192 128 L 192 96 L 0 96 L 0 432 L 192 432 Z M 192 400 " style=" stroke:none;fill-rule:nonzero;fill-opacity:1;" fill="#78b9eb" data-original="#78b9eb"></path>
<path d="M 192 128 C 245.535156 127.96875 294.09375 159.390625 316 208.238281 C 332 243.691406 332 284.308594 316 319.761719 C 294.09375 368.609375 245.535156 400.03125 192 400 L 192 432 L 384 432 L 384 96 L 192 96 Z M 192 128 " style=" stroke:none;fill-rule:nonzero;fill-opacity:1;" fill="#8bc3ee" data-original="#8bc3ee" class=""></path>
<path d="M 368 0 L 192 0 L 192 96 L 384 96 L 384 16 C 384 7.164062 376.835938 0 368 0 Z M 256 64 Z M 256 40 Z M 320 64 Z M 320 40 Z M 320 40 " style=" stroke:none;fill-rule:nonzero;fill-opacity:1;" fill="#24baf1" data-original="#24baf1" class=""></path>
<path d="M 192 464 L 368 464 C 376.835938 464 384 456.835938 384 448 L 384 432 L 192 432 Z M 192 464 " style=" stroke:none;fill-rule:nonzero;fill-opacity:1;" fill="#2482f2" data-original="#2482f2" class=""></path>
<path d="M 0 432 L 0 448 C 0 456.835938 7.164062 464 16 464 L 192 464 L 192 432 Z M 0 432 " style=" stroke:none;fill-rule:nonzero;fill-opacity:1;" fill="#006df0" data-original="#006df0"></path>
<path d="M 56 264 C 56 339.109375 116.890625 400 192 400 L 192 368 C 134.5625 368 88 321.4375 88 264 C 88 206.5625 134.5625 160 192 160 L 192 128 C 116.890625 128 56 188.890625 56 264 Z M 56 264 " style=" stroke:none;fill-rule:nonzero;fill-opacity:1;" fill="#006df0" data-original="#006df0"></path>
<path d="M 284 312.480469 C 266.691406 302.472656 256.03125 283.996094 256.03125 264 C 256.03125 244.003906 266.691406 225.527344 284 215.519531 C 266.011719 181.378906 230.59375 160.003906 192 160 L 192 368 C 230.59375 367.996094 266.011719 346.621094 284 312.480469 Z M 284 312.480469 " style=" stroke:none;fill-rule:nonzero;fill-opacity:1;" fill="#929496" data-original="#929496" class=""></path>
<path d="M 120 264 C 120.042969 224.253906 152.253906 192.042969 192 192 L 192 160 C 134.5625 160 88 206.5625 88 264 C 88 321.4375 134.5625 368 192 368 L 192 192 C 152.253906 192.042969 120.042969 224.253906 120 264 Z M 120 264 " style=" stroke:none;fill-rule:nonzero;fill-opacity:1;" fill="#808285" data-original="#808285" class=""></path>
<path d="M 224 24 C 210.746094 24 200 34.746094 200 48 C 200 61.253906 210.746094 72 224 72 C 237.253906 72 248 61.253906 248 48 C 248.046875 41.621094 245.535156 35.488281 241.023438 30.976562 C 236.511719 26.464844 230.378906 23.953125 224 24 Z M 224 24 " style=" stroke:none;fill-rule:nonzero;fill-opacity:1;" fill="#1b75bc" data-original="#1b75bc" class=""></path>
<path d="M 80 48 C 80 61.253906 69.253906 72 56 72 C 42.746094 72 32 61.253906 32 48 C 32 34.746094 42.746094 24 56 24 C 69.253906 24 80 34.746094 80 48 Z M 80 48 " style=" stroke:none;fill-rule:nonzero;fill-opacity:1;" fill="#1b75bc" data-original="#1b75bc" class=""></path>
<path d="M 316 208.238281 C 294.09375 159.390625 245.535156 127.96875 192 128 L 192 160 C 230.59375 160.003906 266.011719 181.378906 284 215.519531 C 266.691406 225.527344 256.03125 244.003906 256.03125 264 C 256.03125 283.996094 266.691406 302.472656 284 312.480469 C 266.011719 346.621094 230.59375 367.996094 192 368 L 192 400 C 245.535156 400.03125 294.09375 368.609375 316 319.761719 C 332 284.308594 332 243.691406 316 208.238281 Z M 316 208.238281 " style=" stroke:none;fill-rule:nonzero;fill-opacity:1;" fill="#2482f2" data-original="#2482f2" class=""></path>
<path d="M 16 0 C 7.164062 0 0 7.164062 0 16 L 0 96 L 192 96 L 192 0 Z M 56 72 C 42.746094 72 32 61.253906 32 48 C 32 34.746094 42.746094 24 56 24 C 69.253906 24 80 34.746094 80 48 C 80 61.253906 69.253906 72 56 72 Z M 56 72 " style=" stroke:none;fill-rule:nonzero;fill-opacity:1;" fill="#00aeef" data-original="#00aeef"></path>
<path d="M 120 272 C 115.582031 272 112 268.417969 112 264 C 112.046875 219.835938 147.835938 184.046875 192 184 C 196.417969 184 200 187.582031 200 192 C 200 196.417969 196.417969 200 192 200 C 156.671875 200.039062 128.039062 228.671875 128 264 C 128 268.417969 124.417969 272 120 272 Z M 120 272 " style=" stroke:none;fill-rule:nonzero;fill-opacity:1;" fill="#f1f2f2" data-original="#f1f2f2" class=""></path>
<path d="M 296 48 L 264 48 C 259.582031 48 256 44.417969 256 40 C 256 35.582031 259.582031 32 264 32 L 296 32 C 300.417969 32 304 35.582031 304 40 C 304 44.417969 300.417969 48 296 48 Z M 296 48 " style=" stroke:none;fill-rule:nonzero;fill-opacity:1;" fill="#f1f2f2" data-original="#f1f2f2" class=""></path>
<path d="M 296 72 L 264 72 C 259.582031 72 256 68.417969 256 64 C 256 59.582031 259.582031 56 264 56 L 296 56 C 300.417969 56 304 59.582031 304 64 C 304 68.417969 300.417969 72 296 72 Z M 296 72 " style=" stroke:none;fill-rule:nonzero;fill-opacity:1;" fill="#f1f2f2" data-original="#f1f2f2" class=""></path>
<path d="M 128 48 L 96 48 C 91.582031 48 88 44.417969 88 40 C 88 35.582031 91.582031 32 96 32 L 128 32 C 132.417969 32 136 35.582031 136 40 C 136 44.417969 132.417969 48 128 48 Z M 128 48 " style=" stroke:none;fill-rule:nonzero;fill-opacity:1;" fill="#f1f2f2" data-original="#f1f2f2" class=""></path>
<path d="M 128 72 L 96 72 C 91.582031 72 88 68.417969 88 64 C 88 59.582031 91.582031 56 96 56 L 128 56 C 132.417969 56 136 59.582031 136 64 C 136 68.417969 132.417969 72 128 72 Z M 128 72 " style=" stroke:none;fill-rule:nonzero;fill-opacity:1;" fill="#f1f2f2" data-original="#f1f2f2" class=""></path>
<path d="M 352 48 L 320 48 C 315.582031 48 312 44.417969 312 40 C 312 35.582031 315.582031 32 320 32 L 352 32 C 356.417969 32 360 35.582031 360 40 C 360 44.417969 356.417969 48 352 48 Z M 352 48 " style=" stroke:none;fill-rule:nonzero;fill-opacity:1;" fill="#f1f2f2" data-original="#f1f2f2" class=""></path>
<path d="M 352 72 L 320 72 C 315.582031 72 312 68.417969 312 64 C 312 59.582031 315.582031 56 320 56 L 352 56 C 356.417969 56 360 59.582031 360 64 C 360 68.417969 356.417969 72 352 72 Z M 352 72 " style=" stroke:none;fill-rule:nonzero;fill-opacity:1;" fill="#f1f2f2" data-original="#f1f2f2" class=""></path>
</g>
</g></svg>