<svg xmlns="http://www.w3.org/2000/svg" version="1.1" xmlns:xlink="http://www.w3.org/1999/xlink" xmlns:svgjs="http://svgjs.com/svgjs" width="40" height="40" x="0" y="0" viewBox="0 0 410 410.572" style="enable-background:new 0 0 512 512" xml:space="preserve" class=""><g><path xmlns="http://www.w3.org/2000/svg" d="m15.855469 263.308594v135.710937c0 4.722657 3.828125 8.550781 8.550781 8.550781h124.675781c4.722657 0 8.550781-3.828124 8.550781-8.550781v-135.710937zm0 0" fill="#fce8cb" data-original="#fce8cb"></path><path xmlns="http://www.w3.org/2000/svg" d="m157.632812 260.308594h-141.777343c-1.65625 0-3 1.339844-3 3v135.710937c0 6.371094 5.183593 11.550781 11.550781 11.550781h124.671875c6.371094 0 11.554687-5.179687 11.554687-11.550781v-135.710937c0-1.660156-1.339843-3-3-3zm-3 138.710937c0 3.0625-2.492187 5.550781-5.550781 5.550781h-124.675781c-3.058594 0-5.550781-2.488281-5.550781-5.550781v-132.710937h135.777343zm0 0" fill="#3a312a" data-original="#3a312a"></path><path xmlns="http://www.w3.org/2000/svg" d="m15.855469 302.082031h141.777343v66.714844h-141.777343zm0 0" fill="#d7e057" data-original="#d7e057"></path><path xmlns="http://www.w3.org/2000/svg" d="m157.632812 299.082031h-141.777343c-1.65625 0-3 1.34375-3 3v66.710938c0 1.660156 1.34375 3 3 3h141.777343c1.660157 0 3-1.339844 3-3v-66.710938c0-1.65625-1.339843-3-3-3zm-3 66.714844h-135.777343v-60.710937h135.777343zm0 0" fill="#3a312a" data-original="#3a312a"></path><path xmlns="http://www.w3.org/2000/svg" d="m165.296875 231.933594h-157.101563c-2.710937 0-4.910156 2.195312-4.910156 4.90625v22.074218c0 2.710938 2.199219 4.90625 4.910156 4.90625h157.101563c2.710937 0 4.90625-2.195312 4.90625-4.90625v-22.074218c0-2.710938-2.195313-4.90625-4.90625-4.90625zm0 0" fill="#87796f" data-original="#87796f"></path><path xmlns="http://www.w3.org/2000/svg" d="m165.296875 228.933594h-85.207031c-1.65625 0-3 1.339844-3 3 0 1.65625 1.34375 3 3 3h85.207031c1.050781 0 1.90625.855468 1.90625 1.90625v22.074218c0 1.050782-.855469 1.90625-1.90625 1.90625h-157.101563c-1.050781 0-1.90625-.855468-1.90625-1.90625v-22.074218c0-1.050782.855469-1.90625 1.90625-1.90625h45.671876c1.65625 0 3-1.34375 3-3 0-1.660156-1.34375-3-3-3h-45.671876c-4.359374 0-7.910156 3.542968-7.910156 7.90625v22.074218c0 4.359376 3.546875 7.90625 7.910156 7.90625h157.097657c4.359375 0 7.910156-3.542968 7.910156-7.90625v-22.074218c0-4.359375-3.546875-7.90625-7.90625-7.90625zm0 0" fill="#3a312a" data-original="#3a312a"></path><path xmlns="http://www.w3.org/2000/svg" d="m127 3h60.28125v16.285156h-60.28125zm0 0" fill="#87796f" data-original="#87796f"></path><path xmlns="http://www.w3.org/2000/svg" d="m187.28125 0h-60.28125c-1.65625 0-3 1.34375-3 3v16.285156c0 1.660156 1.34375 3 3 3h60.28125c1.660156 0 3-1.339844 3-3v-16.285156c0-1.65625-1.339844-3-3-3zm-3 16.285156h-54.28125v-10.285156h54.28125zm0 0" fill="#3a312a" data-original="#3a312a"></path><path xmlns="http://www.w3.org/2000/svg" d="m159.734375 19.285156h20.042969v60.75h-20.042969zm0 0" fill="#87796f" data-original="#87796f"></path><path xmlns="http://www.w3.org/2000/svg" d="m179.777344 16.285156h-20.042969c-1.65625 0-3 1.34375-3 3v60.75c0 1.660156 1.34375 3 3 3h20.042969c1.660156 0 3-1.339844 3-3v-60.75c0-1.65625-1.339844-3-3-3zm-3 60.75h-14.042969v-54.75h14.042969zm0 0" fill="#3a312a" data-original="#3a312a"></path><path xmlns="http://www.w3.org/2000/svg" d="m205.949219 106.285156h-71.496094c-6.542969 0-11.847656 5.304688-11.847656 11.847656v277.589844c0 6.542969 5.304687 11.847656 11.847656 11.847656h71.496094c6.542969 0 11.847656-5.304687 11.847656-11.847656v-277.589844c0-6.542968-5.304687-11.847656-11.847656-11.847656zm0 0" fill="#f16c7a" data-original="#f16c7a"></path><path xmlns="http://www.w3.org/2000/svg" d="m205.949219 103.285156h-71.496094c-8.1875 0-14.847656 6.664063-14.847656 14.847656v34.925782c0 1.65625 1.34375 3 3 3 1.660156 0 3-1.34375 3-3v-34.925782c0-4.875 3.96875-8.847656 8.847656-8.847656h71.496094c4.878906 0 8.847656 3.972656 8.847656 8.847656v277.589844c0 4.878906-3.96875 8.847656-8.847656 8.847656h-71.496094c-4.878906 0-8.847656-3.96875-8.847656-8.847656v-215.542968c0-1.65625-1.339844-3-3-3-1.65625 0-3 1.34375-3 3v215.542968c0 8.1875 6.664062 14.847656 14.847656 14.847656h71.496094c8.1875 0 14.847656-6.664062 14.847656-14.847656v-277.589844c.003906-8.183593-6.660156-14.847656-14.847656-14.847656zm0 0" fill="#3a312a" data-original="#3a312a"></path><path xmlns="http://www.w3.org/2000/svg" d="m194.003906 73.144531h-47.601562c-5.71875 0-10.378906 4.640625-10.378906 10.382813v22.757812h68.359374v-22.757812c0-5.742188-4.660156-10.382813-10.378906-10.382813zm0 0" fill="#fce8cb" data-original="#fce8cb"></path><path xmlns="http://www.w3.org/2000/svg" d="m194.003906 70.144531h-47.601562c-7.375 0-13.378906 6.003907-13.378906 13.382813v22.757812c0 1.660156 1.34375 3 3 3h68.359374c1.660157 0 3-1.339844 3-3v-22.757812c0-7.378906-6-13.382813-13.378906-13.382813zm7.378906 33.140625h-62.359374v-19.757812c0-4.070313 3.3125-7.382813 7.378906-7.382813h47.601562c4.070313 0 7.378906 3.3125 7.378906 7.382813zm0 0" fill="#3a312a" data-original="#3a312a"></path><path xmlns="http://www.w3.org/2000/svg" d="m122.605469 219.953125h95.191406v64.625h-95.191406zm0 0" fill="#fce8cb" data-original="#fce8cb"></path><path xmlns="http://www.w3.org/2000/svg" d="m217.800781 216.953125h-95.195312c-1.65625 0-3 1.339844-3 3v64.625c0 1.65625 1.34375 3 3 3h95.195312c1.65625 0 3-1.34375 3-3v-64.625c0-1.65625-1.34375-3-3-3zm-3 64.625h-89.195312v-58.625h89.195312zm0 0" fill="#3a312a" data-original="#3a312a"></path><path xmlns="http://www.w3.org/2000/svg" d="m212.375 380.664062v16.453126c0 5.773437 4.679688 10.453124 10.453125 10.453124h68.425781c5.773438 0 10.453125-4.679687 10.453125-10.453124v-16.453126zm0 0" fill="#87796f" data-original="#87796f"></path><path xmlns="http://www.w3.org/2000/svg" d="m301.707031 377.664062h-89.332031c-1.660156 0-3 1.34375-3 3v16.453126c0 7.417968 6.035156 13.453124 13.453125 13.453124h68.425781c7.417969 0 13.453125-6.035156 13.453125-13.453124v-16.453126c0-1.65625-1.34375-3-3-3zm-3 19.453126c0 4.109374-3.34375 7.453124-7.453125 7.453124h-68.425781c-4.109375 0-7.453125-3.34375-7.453125-7.453124v-13.453126h83.335938v13.453126zm0 0" fill="#3a312a" data-original="#3a312a"></path><path xmlns="http://www.w3.org/2000/svg" d="m212.375 337.175781h89.332031v43.488281h-89.332031zm0 0" fill="#87796f" data-original="#87796f"></path><path xmlns="http://www.w3.org/2000/svg" d="m301.707031 334.175781h-89.332031c-1.660156 0-3 1.34375-3 3v43.488281c0 1.660157 1.339844 3 3 3h89.332031c1.660157 0 3-1.339843 3-3v-43.488281c0-1.65625-1.34375-3-3-3zm-3 43.488281h-83.332031v-37.488281h83.332031zm0 0" fill="#3a312a" data-original="#3a312a"></path><path xmlns="http://www.w3.org/2000/svg" d="m306.71875 90h-99.339844c-5.722656 0-10.261718 4.820312-9.921875 10.539062l.582031 10.039063 14.335938 226.601563h89.332031l14.25-226.601563.660157-9.957031c.402343-5.742188-4.160157-10.621094-9.898438-10.621094zm0 0" fill="#8ac6dd" data-original="#8ac6dd"></path><path xmlns="http://www.w3.org/2000/svg" d="m316.164062 91.113281c-2.4375-2.617187-5.878906-4.113281-9.445312-4.113281h-99.339844c-3.601562 0-6.941406 1.445312-9.414062 4.0625-2.433594 2.585938-3.710938 6.109375-3.5 9.652344l.582031 10.054687 14.335937 226.601563c.101563 1.578125 1.410157 2.808594 2.996094 2.808594h89.332032c1.585937 0 2.894531-1.230469 2.996093-2.8125l14.25-226.589844.660157-9.960938c.238281-3.554687-1.015626-7.09375-3.453126-9.703125zm-2.539062 9.308594-.664062 9.96875-14.074219 223.792969h-83.699219l-14.15625-223.777344-.582031-10.042969c-.113281-1.933593.554687-3.773437 1.878906-5.183593 1.324219-1.40625 3.117187-2.175782 5.046875-2.175782h99.339844c1.933594 0 3.734375.78125 5.058594 2.203125 1.328124 1.421875 1.984374 3.269531 1.847656 5.207031v.007813zm0 0" fill="#3a312a" data-original="#3a312a"></path><path xmlns="http://www.w3.org/2000/svg" d="m306.71875 90h-99.339844c-5.722656 0-10.261718 4.820312-9.921875 10.539062l.582031 10.039063h117.917969l.660157-9.957031c.402343-5.742188-4.160157-10.621094-9.898438-10.621094zm0 0" fill="#87796f" data-original="#87796f"></path><path xmlns="http://www.w3.org/2000/svg" d="m316.164062 91.113281c-2.4375-2.617187-5.878906-4.113281-9.445312-4.113281h-99.339844c-3.601562 0-6.941406 1.445312-9.414062 4.0625-2.433594 2.585938-3.710938 6.109375-3.5 9.652344l.578125 10.039062c.09375 1.585938 1.40625 2.828125 2.996093 2.828125h117.921876c1.578124 0 2.886718-1.226562 2.992187-2.800781l.660156-9.960938c.242188-3.558593-1.011719-7.097656-3.449219-9.707031zm-2.539062 9.308594-.476562 7.15625h-112.277344l-.417969-7.214844c-.113281-1.933593.554687-3.777343 1.878906-5.183593s3.117188-2.179688 5.046875-2.179688h99.339844c1.933594 0 3.734375.785156 5.058594 2.207031 1.328125 1.421875 1.984375 3.269531 1.847656 5.203125zm0 0" fill="#3a312a" data-original="#3a312a"></path><path xmlns="http://www.w3.org/2000/svg" d="m270.875 180.332031c-18.429688-7.632812-39.5625 1.117188-47.195312 19.546875-7.632813 18.429688 1.117187 39.5625 19.546874 47.195313 18.429688 7.632812 39.5625-1.117188 47.195313-19.546875 7.632813-18.433594-1.117187-39.5625-19.546875-47.195313zm0 0" fill="#fce8cb" data-original="#fce8cb"></path><path xmlns="http://www.w3.org/2000/svg" d="m257.039062 174.585938c-21.570312 0-39.117187 17.546874-39.117187 39.117187 0 21.574219 17.546875 39.121094 39.117187 39.121094 21.574219 0 39.121094-17.546875 39.121094-39.121094 0-21.570313-17.546875-39.117187-39.121094-39.117187zm0 72.238281c-18.261718 0-33.117187-14.859375-33.117187-33.121094s14.855469-33.117187 33.117187-33.117187c18.261719 0 33.121094 14.855468 33.121094 33.117187s-14.855468 33.121094-33.121094 33.121094zm0 0" fill="#3a312a" data-original="#3a312a"></path><path xmlns="http://www.w3.org/2000/svg" d="m360.835938 170.796875h-61.222657c-1.261719 0-2.285156 1.019531-2.285156 2.28125v20.988281c0 1.257813 1.023437 2.28125 2.285156 2.28125h61.222657c1.257812 0 2.28125-1.023437 2.28125-2.28125v-20.988281c0-1.261719-1.023438-2.28125-2.28125-2.28125zm0 0" fill="#87796f" data-original="#87796f"></path><path xmlns="http://www.w3.org/2000/svg" d="m360.835938 167.796875h-61.222657c-2.914062 0-5.285156 2.367187-5.285156 5.28125v20.988281c0 2.914063 2.371094 5.28125 5.285156 5.28125h61.222657c2.910156 0 5.28125-2.371094 5.28125-5.28125v-20.988281c0-2.914063-2.371094-5.28125-5.28125-5.28125zm-.71875 25.550781h-59.785157v-19.550781h59.785157zm0 0" fill="#3a312a" data-original="#3a312a"></path><path xmlns="http://www.w3.org/2000/svg" d="m368.214844 252.847656-.949219-1.441406c-8.558594-12.992188-13.117187-28.207031-13.117187-43.761719v-11.292969h-47.851563v11.292969c0 15.558594-4.558594 30.769531-13.117187 43.761719l-.945313 1.441406c-8.558594 12.992188-13.121094 28.207032-13.121094 43.761719v97.390625c0 7.496094 6.078125 13.570312 13.574219 13.570312h75.074219c7.496093 0 13.574219-6.074218 13.574219-13.570312v-97.390625c-.003907-15.558594-4.5625-30.769531-13.121094-43.761719zm0 0" fill="#f16c7a" data-original="#f16c7a"></path><path xmlns="http://www.w3.org/2000/svg" d="m370.71875 251.195312-.945312-1.4375c-8.257813-12.539062-12.625-27.101562-12.625-42.113281v-11.296875c0-1.65625-1.34375-3-3-3h-47.847657c-1.660156 0-3 1.34375-3 3v11.296875c0 15.011719-4.367187 29.574219-12.625 42.113281l-.949219 1.4375c-8.90625 13.519532-13.613281 29.226563-13.613281 45.414063v97.390625c0 9.136719 7.433594 16.570312 16.574219 16.570312h75.074219c9.136719 0 16.574219-7.433593 16.574219-16.570312v-97.390625c-.003907-16.191406-4.710938-31.894531-13.617188-45.414063zm7.613281 142.800782c0 5.832031-4.742187 10.574218-10.570312 10.574218h-75.078125c-5.828125 0-10.570313-4.746093-10.570313-10.574218v-97.386719c0-15.011719 4.363281-29.578125 12.625-42.117187l.945313-1.4375c8.90625-13.519532 13.613281-29.222657 13.613281-45.414063v-8.292969h41.847656v8.292969c0 16.191406 4.710938 31.894531 13.617188 45.414063l.945312 1.4375c8.257813 12.539062 12.621094 27.101562 12.621094 42.117187v97.386719zm0 0" fill="#3a312a" data-original="#3a312a"></path><path xmlns="http://www.w3.org/2000/svg" d="m279.113281 303.285156h102.21875v54.363282h-102.21875zm0 0" fill="#fce8cb" data-original="#fce8cb"></path><path xmlns="http://www.w3.org/2000/svg" d="m381.332031 300.285156h-102.21875c-1.65625 0-3 1.339844-3 3v54.363282c0 1.65625 1.34375 3 3 3h102.21875c1.65625 0 3-1.34375 3-3v-54.363282c0-1.660156-1.34375-3-3-3zm-3 54.363282h-96.21875v-48.363282h96.21875zm0 0" fill="#3a312a" data-original="#3a312a"></path><path xmlns="http://www.w3.org/2000/svg" d="m76.179688 119.070312c-1.949219 23.128907-26.046876 26.78125-26.046876 26.78125 20.691407.972657 25.847657 28.117188 25.847657 28.117188.445312-19.355469 26.644531-28.40625 26.644531-28.40625-19.628906-1.171875-26.445312-26.492188-26.445312-26.492188zm0 0" fill="#d7e057" data-original="#d7e057"></path><path xmlns="http://www.w3.org/2000/svg" d="m102.804688 142.570312c-17.207032-1.027343-23.664063-24.046874-23.726563-24.28125-.378906-1.402343-1.695313-2.316406-3.167969-2.203124-1.449218.132812-2.59375 1.285156-2.714844 2.734374-1.722656 20.429688-22.632812 23.925782-23.511718 24.066407-1.527344.230469-2.628906 1.578125-2.546875 3.121093.078125 1.539063 1.3125 2.769532 2.855469 2.84375 18.054687.847657 22.996093 25.433594 23.042968 25.683594.273438 1.421875 1.519532 2.433594 2.945313 2.433594.082031 0 .167969-.003906.253906-.011719 1.527344-.128906 2.710937-1.386719 2.746094-2.917969.390625-17.015624 24.382812-25.554687 24.628906-25.636718 1.347656-.46875 2.183594-1.832032 1.988281-3.246094-.199218-1.417969-1.367187-2.5-2.792968-2.585938zm-27.132813 20.691407c-2.714844-6.257813-7.417969-13.8125-15.175781-17.75 5.863281-2.808594 12.820312-7.828125 16.40625-16.546875 3.101562 6.144531 8.398437 13.761718 16.664062 17.445312-6.011718 3.277344-13.839844 8.808594-17.894531 16.851563zm0 0" fill="#3a312a" data-original="#3a312a"></path><path xmlns="http://www.w3.org/2000/svg" d="m32.785156 153.035156c-1.378906 16.355469-18.425781 18.9375-18.425781 18.9375 14.636719.691406 18.285156 19.890625 18.285156 19.890625.3125-13.6875 18.84375-20.089843 18.84375-20.089843-13.882812-.832032-18.703125-18.738282-18.703125-18.738282zm0 0" fill="#d7e057" data-original="#d7e057"></path><path xmlns="http://www.w3.org/2000/svg" d="m51.664062 168.777344c-11.53125-.691406-15.941406-16.371094-15.984374-16.53125-.378907-1.402344-1.699219-2.332032-3.164063-2.203125-1.449219.132812-2.597656 1.285156-2.71875 2.738281-1.160156 13.742188-15.292969 16.132812-15.886719 16.226562-1.523437.230469-2.625 1.582032-2.542968 3.121094.078124 1.542969 1.3125 2.769532 2.855468 2.84375 12.070313.566406 15.445313 17.289063 15.476563 17.453125.269531 1.421875 1.519531 2.4375 2.945312 2.4375.082031 0 .164063 0 .25-.007812 1.53125-.128907 2.714844-1.390625 2.75-2.921875.261719-11.417969 16.664063-17.269532 16.824219-17.324219 1.355469-.46875 2.1875-1.828125 1.992188-3.246094-.195313-1.417969-1.363282-2.5-2.796876-2.585937zm-19.167968 13.589844c-1.847656-3.769532-4.679688-7.894532-8.890625-10.558594 3.710937-2.082032 7.390625-5.261719 9.742187-9.832032 2.113282 3.746094 5.304688 7.90625 9.878906 10.445313-3.699218 2.199219-7.976562 5.480469-10.730468 9.945313zm0 0" fill="#3a312a" data-original="#3a312a"></path><path xmlns="http://www.w3.org/2000/svg" d="m32.785156 99.71875c-1.378906 16.355469-18.425781 18.941406-18.425781 18.941406 14.636719.6875 18.285156 19.886719 18.285156 19.886719.3125-13.6875 18.84375-20.089844 18.84375-20.089844-13.882812-.832031-18.703125-18.738281-18.703125-18.738281zm0 0" fill="#d7e057" data-original="#d7e057"></path><path xmlns="http://www.w3.org/2000/svg" d="m51.664062 115.460938c-11.476562-.683594-15.902343-16.222657-15.984374-16.523438-.378907-1.40625-1.710938-2.335938-3.164063-2.207031-1.453125.128906-2.601563 1.285156-2.722656 2.734375-1.15625 13.742187-15.289063 16.132812-15.882813 16.226562-1.527344.230469-2.625 1.582032-2.546875 3.121094.082031 1.542969 1.316407 2.769531 2.855469 2.84375 12.070312.566406 15.445312 17.289062 15.476562 17.453125.269532 1.421875 1.519532 2.4375 2.945313 2.4375.082031 0 .164063 0 .25-.007813 1.53125-.128906 2.714844-1.390624 2.75-2.921874.261719-11.417969 16.664063-17.269532 16.824219-17.324219 1.351562-.46875 2.1875-1.828125 1.992187-3.246094-.191406-1.417969-1.359375-2.5-2.792969-2.585937zm-19.167968 13.589843c-1.847656-3.769531-4.679688-7.894531-8.890625-10.558593 3.710937-2.082032 7.390625-5.261719 9.742187-9.835938 2.113282 3.75 5.304688 7.910156 9.878906 10.449219-3.699218 2.203125-7.976562 5.480469-10.730468 9.945312zm0 0" fill="#3a312a" data-original="#3a312a"></path><path xmlns="http://www.w3.org/2000/svg" d="m119.609375 395.726562v-23.941406h-19.300781v23.941406c0 3.320313 1.121094 6.378907 2.960937 8.839844h19.28125c-1.839843-2.460937-2.941406-5.519531-2.941406-8.839844zm0 0" fill="#ccae8b" data-original="#ccae8b"></path><path xmlns="http://www.w3.org/2000/svg" d="m100.308594 266.824219h19.300781v32.261719h-19.300781zm0 0" fill="#ccae8b" data-original="#ccae8b"></path><path xmlns="http://www.w3.org/2000/svg" d="m100.308594 305.085938h19.300781v60.699218h-19.300781zm0 0" fill="#b9bc39" data-original="#b9bc39"></path><path xmlns="http://www.w3.org/2000/svg" d="m100.308594 234.925781h19.300781v25.898438h-19.300781zm0 0" fill="#6b5b51" data-original="#6b5b51"></path><path xmlns="http://www.w3.org/2000/svg" d="m195.050781 110.765625v-.019531l-.101562-1.460938h-17.257813l.078125 1.460938v.019531l6.71875 106.179687h17.28125zm0 0" fill="#ce4e61" data-original="#ce4e61"></path><path xmlns="http://www.w3.org/2000/svg" d="m209.371094 397.125v-59.839844l-3.140625-49.699218h-17.28125l3.140625 49.699218v59.839844c0 2.140625.539062 4.179688 1.441406 5.980469-1.402344.921875-3.0625 1.460937-4.859375 1.460937h17.277344c1.800781 0 3.460937-.539062 4.839843-1.460937-.898437-1.800781-1.417968-3.839844-1.417968-5.980469zm0 0" fill="#ce4e61" data-original="#ce4e61"></path><path xmlns="http://www.w3.org/2000/svg" d="m194.011719 76.144531h-17.28125c4.058593 0 7.378906 3.300781 7.378906 7.382813v4.957031c-1.257813.660156-2.417969 1.523437-3.417969 2.582031-2.441406 2.578125-3.722656 6.097656-3.5 9.640625l.136719 2.578125h17.28125l-.140625-2.578125c-.21875-3.542969 1.0625-7.0625 3.5-9.640625.980469-1.058594 2.140625-1.921875 3.421875-2.582031v-4.957031c0-4.082032-3.320313-7.382813-7.378906-7.382813zm0 0" fill="#ccae8b" data-original="#ccae8b"></path><path xmlns="http://www.w3.org/2000/svg" d="m202.148438 222.945312h-17.277344l3.699218 58.640626h17.28125zm0 0" fill="#ccae8b" data-original="#ccae8b"></path><path xmlns="http://www.w3.org/2000/svg" d="m276.109375 394.007812v-10.34375h-14.917969v10.34375c0 4 1.417969 7.699219 3.820313 10.558594h14.917969c-2.378907-2.859375-3.820313-6.558594-3.820313-10.558594zm0 0" fill="#6b5b51" data-original="#6b5b51"></path><path xmlns="http://www.w3.org/2000/svg" d="m261.191406 340.1875h14.917969v37.476562h-14.917969zm0 0" fill="#6b5b51" data-original="#6b5b51"></path><path xmlns="http://www.w3.org/2000/svg" d="m299.609375 167.804688h9.742187l3.417969-54.21875h-14.941406l-3.398437 54.21875h-9.738282c-2.921875 0-5.28125 2.359374-5.28125 5.28125v8.539062c10.121094 7.082031 16.761719 18.820312 16.761719 32.082031 0 14.117188-7.523437 26.5-18.761719 33.398438-.519531.902343-1.082031 1.78125-1.660156 2.660156l-.960938 1.421875c-8.898437 13.519531-13.597656 29.238281-13.597656 45.417969v37.582031h14.917969v-37.582031c0-16.179688 4.71875-31.898438 13.621094-45.417969l.941406-1.421875c8.257813-12.539063 12.617187-27.121094 12.617187-42.121094v-8.296875h-3.679687c-2.898437 0-5.28125-2.363281-5.28125-5.28125v-20.980468c0-2.921876 2.382813-5.28125 5.28125-5.28125zm0 0" fill="#68a8bc" data-original="#68a8bc"></path><path xmlns="http://www.w3.org/2000/svg" d="m311.769531 95.207031c-1.320312-1.421875-3.121093-2.199219-5.058593-2.199219h-14.921876c1.941407 0 3.742188.777344 5.0625 2.199219 1.320313 1.417969 1.976563 3.257813 1.839844 5.199219v.019531l-.480468 7.160157h14.9375l.480468-7.160157v-.019531c.140625-1.941406-.519531-3.78125-1.859375-5.199219zm0 0" fill="#6b5b51" data-original="#6b5b51"></path><path xmlns="http://www.w3.org/2000/svg" d="m343.53125 173.804688h16.578125v19.542968h-16.578125zm0 0" fill="#6b5b51" data-original="#6b5b51"></path><path xmlns="http://www.w3.org/2000/svg" d="m361.75 360.644531v33.363281c0 5.816407-4.738281 10.558594-10.558594 10.558594h16.578125c5.820313 0 10.558594-4.742187 10.558594-10.558594v-33.363281zm0 0" fill="#ce4e61" data-original="#ce4e61"></path><path xmlns="http://www.w3.org/2000/svg" d="m365.710938 254.484375-.941407-1.417969c-8.917969-13.539062-13.621093-29.242187-13.621093-45.421875v-8.296875h-16.578126v8.296875c0 16.179688 4.699219 31.882813 13.621094 45.421875l.9375 1.417969c8.261719 12.542969 12.621094 27.121094 12.621094 42.121094v3.679687h16.578125v-3.679687c0-15-4.359375-29.578125-12.617187-42.121094zm0 0" fill="#ce4e61" data-original="#ce4e61"></path><path xmlns="http://www.w3.org/2000/svg" d="m361.75 306.285156h16.578125v48.359375h-16.578125zm0 0" fill="#ccae8b" data-original="#ccae8b"></path></g></svg>