<svg xmlns="http://www.w3.org/2000/svg" version="1.1" xmlns:xlink="http://www.w3.org/1999/xlink" xmlns:svgjs="http://svgjs.com/svgjs" width="40" height="40" x="0" y="0" viewBox="0 0 32 32" style="enable-background:new 0 0 512 512" xml:space="preserve" class=""><g><g xmlns="http://www.w3.org/2000/svg" transform="translate(-80 -80)"><g transform="matrix(1 0 0 1.5 0 -41)"><path d="m91 82h10v2h-10z" fill="#64b6e6" data-original="#64b6e6"></path></g><path d="m90 81.5h12c1.381 0 2.5 1.119 2.5 2.5v24c0 1.381-1.119 2.5-2.5 2.5h-12c-1.381 0-2.5-1.119-2.5-2.5v-24c0-1.381 1.119-2.5 2.5-2.5zm.5 1h-.5c-.828 0-1.5.672-1.5 1.5v24c0 .828.672 1.5 1.5 1.5h12c.828 0 1.5-.672 1.5-1.5v-24c0-.828-.672-1.5-1.5-1.5h-.5v1.5c0 .828-.672 1.5-1.5 1.5h-8c-.828 0-1.5-.672-1.5-1.5zm10 0h-9v1.5c0 .276.224.5.5.5h8c.276 0 .5-.224.5-.5z" fill="#1076cf" data-original="#1076cf" class=""></path></g></g></svg>