<svg xmlns="http://www.w3.org/2000/svg" version="1.1" xmlns:xlink="http://www.w3.org/1999/xlink" xmlns:svgjs="http://svgjs.com/svgjs" width="512" height="512" x="0" y="0" viewBox="0 0 512 512" style="enable-background:new 0 0 512 512" xml:space="preserve" class=""><g><g xmlns="http://www.w3.org/2000/svg"><path d="m512 128v256c-17.68 0-32 14.32-32 32h-320c0-17.68-14.32-32-32-32s-32 14.32-32 32h-64c0-17.68-14.32-32-32-32v-256c17.68 0 32-14.32 32-32h64c0 17.68 14.32 32 32 32s32-14.32 32-32h320c0 17.68 14.32 32 32 32z" fill="#ffe54a" data-original="#ffe54a"></path><path d="m512 256v128c-17.68 0-32 14.32-32 32h-320c0-17.68-14.32-32-32-32s-32 14.32-32 32h-64c0-17.68-14.32-32-32-32v-128z" fill="#f4cc03" data-original="#f4cc03"></path><path d="m417.23 176.23-79.77 79.77-100.98 100.98-21.21-21.21 79.77-79.77 100.98-100.98z" fill="#f1475d" data-original="#f1475d"></path><path d="m337.46 256-100.98 100.98-21.21-21.21 79.77-79.77z" fill="#de1f55" data-original="#de1f55"></path><path d="m256 240.875c-24.882 0-45.125-20.243-45.125-45.125s20.243-45.125 45.125-45.125 45.125 20.243 45.125 45.125-20.243 45.125-45.125 45.125zm0-60.25c-8.34 0-15.125 6.785-15.125 15.125s6.785 15.125 15.125 15.125 15.125-6.785 15.125-15.125-6.785-15.125-15.125-15.125z" fill="#f1475d" data-original="#f1475d"></path><path d="m376.5 361.375c-24.882 0-45.125-20.243-45.125-45.125s20.243-45.125 45.125-45.125 45.125 20.243 45.125 45.125-20.243 45.125-45.125 45.125zm0-60.25c-8.34 0-15.125 6.785-15.125 15.125s6.785 15.125 15.125 15.125 15.125-6.785 15.125-15.125-6.785-15.125-15.125-15.125z" fill="#de1f55" data-original="#de1f55"></path><path d="m113 180.75h30v30h-30z" fill="#f4cc03" data-original="#f4cc03"></path><path d="m113 241h30v30h-30z" fill="#f4cc03" data-original="#f4cc03"></path><g fill="#edae02"><path d="m113 256h30v15h-30z" fill="#edae02" data-original="#edae02"></path><path d="m113 301.25h30v30h-30z" fill="#edae02" data-original="#edae02"></path></g></g></g></svg>