<svg xmlns="http://www.w3.org/2000/svg" version="1.1" xmlns:xlink="http://www.w3.org/1999/xlink" xmlns:svgjs="http://svgjs.com/svgjs" width="40" height="40" x="0" y="0" viewBox="0 0 64 64" style="enable-background:new 0 0 512 512" xml:space="preserve" class=""><g><circle xmlns="http://www.w3.org/2000/svg" cx="25" cy="25" fill="#f9b534" r="24" data-original="#f9b534"></circle><path xmlns="http://www.w3.org/2000/svg" d="m25.535 1.006a24 24 0 0 0 4.724 47.415 24 24 0 0 0 -4.724-47.415z" fill="#f9cb4e" data-original="#f9cb4e" class=""></path><path xmlns="http://www.w3.org/2000/svg" d="m47.294 16.1a15.759 15.759 0 0 0 -6.119-5.67 14.178 14.178 0 0 0 -11.308-1.036c-.321.116-.629.259-.938.4a31.416 31.416 0 0 0 -2.929-2.257 27.393 27.393 0 0 1 10.712-2.473c.579-.016 1.163-.006 1.676.014a24.03 24.03 0 0 0 -3.432-1.922 29.455 29.455 0 0 0 -10.946 3.128c-.892-.517-1.813-1-2.764-1.43a5.694 5.694 0 0 0 1.375-3.615c0-.041 0-.082 0-.122q-1.015.1-2 .283a4.017 4.017 0 0 1 -1.34 2.633 33.583 33.583 0 0 0 -3.619-1.147 24.08 24.08 0 0 0 -2.817 1.414c.34.075.716.156 1.134.245a31.132 31.132 0 0 1 3.308.921 26.992 26.992 0 0 1 -9.123 2.434 23.979 23.979 0 0 0 -1.944 2.155c.294-.015.617-.035.969-.062 2.568-.193 8.716-.926 12.451-3.641q1.183.5 2.3 1.094a31.243 31.243 0 0 0 -14.878 26.571 31.965 31.965 0 0 0 1.081 8.067 24.055 24.055 0 0 0 2.814 2.38c-.141-.411-.293-.874-.454-1.394a30.38 30.38 0 0 1 -1.441-9.053 29.224 29.224 0 0 1 14.874-25.426 29.6 29.6 0 0 1 3.123 2.265 16.036 16.036 0 0 0 -5.45 6.9c-3.555 8.066-2.839 21.262 5.291 31.17a23.055 23.055 0 0 0 2.356-.3c-.151-.19-.269-.325-.4-.473-8-9.335-8.784-21.951-5.418-29.587a13.807 13.807 0 0 1 5.16-6.328 28.621 28.621 0 0 1 8.9 20.781 27.709 27.709 0 0 1 -3.2 13.262c-.221.411-.427.777-.609 1.1a23.945 23.945 0 0 0 2.982-1.4 30.878 30.878 0 0 0 -6.15-34.69l.025-.011a12.238 12.238 0 0 1 9.738.942c3.052 1.52 5.478 4.424 7.414 8.879.514 1.18.947 2.356 1.3 3.4a23.922 23.922 0 0 0 -1.704-8.401z" fill="#f4991e" data-original="#f4991e"></path><path xmlns="http://www.w3.org/2000/svg" d="m47.294 16.1a15.759 15.759 0 0 0 -6.119-5.67 14.178 14.178 0 0 0 -11.308-1.036c-.321.116-.629.259-.938.4a31.416 31.416 0 0 0 -2.929-2.257 27.393 27.393 0 0 1 10.712-2.473c.579-.016 1.163-.006 1.676.014a24.03 24.03 0 0 0 -3.432-1.922 29.455 29.455 0 0 0 -10.946 3.128c-.892-.517-1.813-1-2.764-1.43a5.861 5.861 0 0 0 1.334-2.983 23.712 23.712 0 0 0 -2.421 1.036 5.176 5.176 0 0 1 -.883 1.126q-.354-.134-.711-.26a24.034 24.034 0 0 0 -2.129 1.427q.428.13.851.272a16.243 16.243 0 0 1 -2.464 1.047 24.164 24.164 0 0 0 -2.661 2.781 20.038 20.038 0 0 0 7.478-2.948q1.183.5 2.3 1.094a31.288 31.288 0 0 0 -14.572 22.22 23.814 23.814 0 0 0 1.7 4.974q-.008-.312-.008-.623a29.224 29.224 0 0 1 14.876-25.426 29.6 29.6 0 0 1 3.123 2.265 16.036 16.036 0 0 0 -5.45 6.9c-3.443 7.812-2.879 20.434 4.541 30.222a24.068 24.068 0 0 0 2.889.386l-.182-.213c-8-9.335-8.784-21.951-5.418-29.587a13.807 13.807 0 0 1 5.16-6.328 28.621 28.621 0 0 1 8.9 20.781 27.709 27.709 0 0 1 -3.2 13.262c-.221.411-.427.777-.609 1.1a23.945 23.945 0 0 0 2.982-1.4 30.878 30.878 0 0 0 -6.15-34.69l.025-.011a12.238 12.238 0 0 1 9.738.942c3.052 1.52 5.478 4.424 7.414 8.879.514 1.18.947 2.356 1.3 3.4a23.922 23.922 0 0 0 -1.705-8.399z" fill="#f7a41c" data-original="#f7a41c" class=""></path><path xmlns="http://www.w3.org/2000/svg" d="m22.658 48.885c.771.074 1.552.115 2.342.115a24 24 0 0 0 24-24c0-.04 0-.078 0-.118a28.084 28.084 0 0 0 -18.1 8.572 28.371 28.371 0 0 0 -8.242 15.431z" fill="#f7a41c" data-original="#f7a41c" class=""></path><g xmlns="http://www.w3.org/2000/svg" fill="#f4991e"><path d="m34.3 46.279c-.221.411-.427.777-.609 1.1a23.945 23.945 0 0 0 2.982-1.4 30.629 30.629 0 0 0 2.827-12.962 31.105 31.105 0 0 0 -.485-5.432c-.617.3-1.236.624-1.857.988a28.966 28.966 0 0 1 .342 4.444 27.709 27.709 0 0 1 -3.2 13.262z" fill="#f4991e" data-original="#f4991e"></path><path d="m29.039 48.364-.182-.213a29.785 29.785 0 0 1 -4.045-6.135c-.379.811-.706 1.614-.988 2.408a31.668 31.668 0 0 0 2.326 3.554 24.068 24.068 0 0 0 2.889.386z" fill="#f4991e" data-original="#f4991e"></path><path d="m34.3 46.279c-.221.411-.427.777-.609 1.1a23.945 23.945 0 0 0 2.982-1.4 30.629 30.629 0 0 0 2.827-12.962 31.105 31.105 0 0 0 -.485-5.432c-.617.3-1.236.624-1.857.988a28.966 28.966 0 0 1 .342 4.444 27.709 27.709 0 0 1 -3.2 13.262z" fill="#f4991e" data-original="#f4991e"></path><path d="m29.039 48.364-.182-.213a29.785 29.785 0 0 1 -4.045-6.135c-.379.811-.706 1.614-.988 2.408a31.668 31.668 0 0 0 2.326 3.554 24.068 24.068 0 0 0 2.889.386z" fill="#f4991e" data-original="#f4991e"></path></g><path xmlns="http://www.w3.org/2000/svg" d="m33.454 33.454c-13.128 13.127-7.41 28.307-7.41 28.307s15.18 5.718 28.307-7.41 7.41-28.307 7.41-28.307-15.18-5.718-28.307 7.41z" fill="#e44d44" data-original="#e44d44"></path><path xmlns="http://www.w3.org/2000/svg" d="m61.761 26.044a25.655 25.655 0 0 0 -8.886-1.229 28.459 28.459 0 0 0 -15.057 8.178c-13.127 13.127-7.409 28.307-7.409 28.307a25.623 25.623 0 0 0 8.885 1.229 28.446 28.446 0 0 0 15.057-8.177c13.128-13.128 7.41-28.308 7.41-28.308z" fill="#f0534a" data-original="#f0534a"></path><path xmlns="http://www.w3.org/2000/svg" d="m32.951 54.854a37.148 37.148 0 0 1 -6.515-8.133c-.184-.341-.348-.654-.5-.947a26.811 26.811 0 0 0 -.689 2.889 42.887 42.887 0 0 0 6.289 7.605 49.627 49.627 0 0 0 7.7 6.271 26.983 26.983 0 0 0 2.774-.666 10.5 10.5 0 0 1 -.939-.51 47.3 47.3 0 0 1 -8.12-6.509z" fill="#cdcdcd" data-original="#cdcdcd"></path><path xmlns="http://www.w3.org/2000/svg" d="m56.286 31.519a46.237 46.237 0 0 0 -7.629-6.27 27.037 27.037 0 0 0 -2.8.664c.218.122.509.286.872.5a42.018 42.018 0 0 1 8.145 6.522 46.374 46.374 0 0 1 6.506 8.12c.208.334.381.622.523.866a26.735 26.735 0 0 0 .645-2.718 48.961 48.961 0 0 0 -6.262-7.684z" fill="#cdcdcd" data-original="#cdcdcd"></path><path xmlns="http://www.w3.org/2000/svg" d="m51.868 34.524-1.855 1.854-1.425-1.425a1 1 0 1 0 -1.414 1.414l1.426 1.425-2.734 2.735-1.426-1.427a1 1 0 0 0 -1.414 1.414l1.425 1.425-2.735 2.734-1.425-1.423a1 1 0 0 0 -1.414 1.414l1.423 1.425-2.735 2.735-1.422-1.424a1 1 0 0 0 -1.414 1.414l1.424 1.425-1.853 1.853a1 1 0 1 0 1.414 1.414l1.854-1.854 1.315 1.315a1 1 0 0 0 1.417-1.414l-1.315-1.315 2.731-2.738 1.315 1.315a1 1 0 1 0 1.414-1.415l-1.315-1.311 2.735-2.734 1.314 1.314a1 1 0 1 0 1.414-1.414l-1.314-1.314 2.734-2.735 1.315 1.315a1 1 0 0 0 1.414-1.414l-1.315-1.315 1.855-1.854a1 1 0 1 0 -1.414-1.414z" fill="#eaeae8" data-original="#eaeae8"></path><path xmlns="http://www.w3.org/2000/svg" d="m41.075 61.363a47.3 47.3 0 0 1 -8.124-6.509c-1.431-1.431-2.655-2.768-3.684-4.025a28.208 28.208 0 0 0 -.091 2.958q1.08 1.2 2.361 2.481a49.633 49.633 0 0 0 7.69 6.262h.067a26.611 26.611 0 0 0 2.72-.655 10.5 10.5 0 0 1 -.939-.512z" fill="#d5d5d3" data-original="#d5d5d3"></path><path xmlns="http://www.w3.org/2000/svg" d="m61.378 41.053c.208.334.381.622.523.866a26.735 26.735 0 0 0 .645-2.718 48.961 48.961 0 0 0 -6.26-7.682 47.72 47.72 0 0 0 -6.917-5.8q-1.146.378-2.321.886a42.788 42.788 0 0 1 7.824 6.33 46.374 46.374 0 0 1 6.506 8.118z" fill="#d5d5d3" data-original="#d5d5d3"></path><path xmlns="http://www.w3.org/2000/svg" d="m51.868 34.524-1.855 1.854-1.425-1.425a1 1 0 1 0 -1.414 1.414l1.426 1.425-2.734 2.735-1.426-1.427a1 1 0 0 0 -1.414 1.414l1.425 1.425-2.735 2.734-1.425-1.423a1 1 0 0 0 -1.414 1.414l1.423 1.425-2.735 2.735-1.422-1.424a1 1 0 0 0 -1.414 1.414l1.424 1.425-1.853 1.853a1 1 0 1 0 1.414 1.414l1.854-1.854 1.315 1.315a1 1 0 0 0 1.417-1.414l-1.315-1.315 2.731-2.738 1.315 1.315a1 1 0 1 0 1.414-1.415l-1.315-1.311 2.735-2.734 1.314 1.314a1 1 0 1 0 1.414-1.414l-1.314-1.314 2.734-2.735 1.315 1.315a1 1 0 0 0 1.414-1.414l-1.315-1.315 1.855-1.854a1 1 0 1 0 -1.414-1.414z" fill="#d5d5d3" data-original="#d5d5d3"></path></g></svg>